<?xml version="1.0" encoding="UTF-8"?>
<svg id="Logo" xmlns="http://www.w3.org/2000/svg" version="1.1" viewBox="0 0 209.4 58.7">
  <!-- Generator: Adobe Illustrator 29.7.0, SVG Export Plug-In . SVG Version: 2.1.1 Build 138)  -->
  <defs>
    <style>
      .st0 {
        fill: #1d1e1c;
      }
    </style>
  </defs>
  <path class="st0" d="M.3,6.9h4.6v2.6h0c.8-1.5,2.6-3.2,5.7-3.2,4.6,0,6.6,3.7,6.6,7.7v11.4h-4.6v-11.1c0-2.9-1.1-4.3-3.3-4.3s-4.4,2.7-4.4,5.8v9.5H.3V6.9ZM.3-.5h4.6v7.4H.3V-.5Z"/>
  <path class="st0" d="M29.1,9.8c-2.1,0-3.8,1.3-4.4,3.9h8.2c0-2-1.3-3.9-3.8-3.9M20,16.2c0-5.8,3.9-9.9,9.2-9.9s8.5,3.4,8.5,9.2v1.4h-13.2c.2,3.4,2,5.3,4.7,5.3s3.6-1.1,3.9-3h4.7c-.7,4.5-4.4,6.7-8.5,6.7s-9.2-4.1-9.2-9.7"/>
  <path class="st0" d="M45.1,0h-.4l-4.1,3.1v3.8h4.6V0ZM46.1,25.8c-3.6,0-5.6-1.7-5.6-5.1V7.6h-3.9v-.7h14.1v3.3h-5.7v12.1c0,1.5.7,2.4,2.2,2.4s3.2-1.8,3.3-4.2h.9c-.2,3.2-1.8,5.2-5.2,5.2"/>
  <path class="st0" d="M-.4,47.9c0-6.6,4.4-11.5,11-11.5s9.2,2.9,9.8,8.9h-4.9c-.3-3-2-4.9-5-4.9s-6,2.9-6,7.5,2.4,7.5,5.9,7.5,4.9-1.9,5.2-4.7h4.9c-.8,6-5.4,8.7-10.5,8.7S-.4,54.5-.4,47.9"/>
  <path class="st0" d="M23.2,51.4v-11.2h4.6v11c0,3.1,1.2,4.3,3.3,4.3,2.9,0,4.2-2.5,4.2-6.1v-9.2h4.6v11.5c0,3.1.5,5.4,1.3,7h-4.9c-.3-.6-.5-1.5-.6-2.7h0c-1,1.7-2.9,3.3-5.8,3.3-4.2,0-6.5-3.3-6.5-7.9"/>
  <path class="st0" d="M44,50.5v-17.7h4.6v17.7c0,3.3.3,6.2,1.3,8.2h-5c-.7-1.7-.9-4.6-.9-8.3"/>
  <path class="st0" d="M57.9,33.3h-.4l-4.1,3.1v3.8h4.6v-6.9ZM59,59.1c-3.6,0-5.6-1.7-5.6-5.1v-13.1h-3.9v-.7h14.1v3.3h-5.7v12.1c0,1.5.7,2.4,2.2,2.4s3.2-1.8,3.3-4.2h.9c-.2,3.2-1.8,5.2-5.2,5.2"/>
  <path class="st0" d="M65.7,51.4v-11.2h4.6v11c0,3.1,1.2,4.3,3.3,4.3,2.9,0,4.2-2.5,4.2-6.1v-9.2h4.6v11.5c0,3.1.5,5.4,1.3,7h-4.9c-.3-.6-.5-1.5-.6-2.7h0c-1,1.7-2.9,3.3-5.8,3.3-4.2,0-6.5-3.3-6.5-7.9"/>
  <path class="st0" d="M85.6,51.4v-11.2h4.6v11c0,3.1,1.2,4.3,3.3,4.3,2.9,0,4.2-2.5,4.2-6.1v-9.2h4.6v11.5c0,3.1.5,5.4,1.3,7h-4.9c-.3-.6-.5-1.5-.6-2.7h0c-1,1.7-2.9,3.3-5.8,3.3-4.2,0-6.5-3.3-6.5-7.9"/>
  <path class="st0" d="M109.9,43.9h7.4v-3.7h-7.4v3.7ZM105.8,58.7h4.1v-14.8h-4.1v14.8ZM105.8,43.9c2.6,0,4.1-1.3,4.1-3.7v3.7h-4.1Z"/>
  <path class="st0" d="M122,43.9h-3.4v-3.7h3.4v-1.7c0-4.2,2.6-6.2,5.9-6.2s2,.1,2.8.4v3.7c-.6-.1-1.1-.3-1.7-.3-1.3,0-2.4.5-2.4,2.5v1.5h4.1v3.7h-4.1v14.8h-4.6v-14.8Z"/>
  <path class="st0" d="M146,49.5c0-3.5-1.8-6-4.9-6s-4.9,2.5-4.9,6,1.8,6,4.9,6,4.9-2.5,4.9-6M131.5,49.5c0-5.7,3.8-9.9,9.6-9.9s9.6,4.1,9.6,9.9-3.8,9.8-9.6,9.8-9.6-4.1-9.6-9.8"/>
  <path class="st0" d="M169.8,58h3v.7h-10.2v-.7h2.8v-12.6h4.4v12.6ZM164.2,40.7c-3.2,0-6.1,2.4-6.1,5.9v11.4h2.8v.7h-10.2v-.7h3v-17h-3v-.7h7.4v3.1h0c1-1.8,3-3.5,6.1-3.5s5.4,2.3,5.4,5.6h-1c0-2.8-1.7-4.7-4.6-4.7"/>
  <path class="st0" d="M186.7,49.5c0-3.7-1.8-6.2-4.7-6.2s-4.8,2.5-4.8,6.2,1.9,6.2,4.8,6.2,4.7-2.5,4.7-6.2M172.5,49.5c0-5.9,3.6-9.9,8.4-9.9s4.4,1,5.7,3.1h0v-9.9h4.6v25.9h-4.6v-2.5h0c-1.3,2-3.3,3-5.7,3-4.8,0-8.4-4-8.4-9.8"/>
  <path class="st0" d="M209.4,45.9h-4.5c0-1.6-1.2-2.8-3.4-2.8s-3,.8-3,2,.6,1.5,2,1.9l4.1.9c3.4.8,5.2,2.6,5.2,5.3s-3.4,6.1-8.2,6.1-8.3-2.6-8.5-7h4.5c.1,2.4,1.7,3.5,4.1,3.5s3.7-.8,3.7-2.2-.5-1.5-2.2-1.9l-4-.9c-3.7-.9-5.1-2.8-5.1-5.2,0-3.5,3.1-6,7.6-6s7.7,3,7.8,6.3"/>
</svg>