<?xml version="1.0" encoding="UTF-8"?>
<svg id="DH-NL-RGB-Comp" xmlns="http://www.w3.org/2000/svg" xmlns:xlink="http://www.w3.org/1999/xlink" version="1.1" viewBox="0 0 475 457.8">
  <!-- Generator: Adobe Illustrator 29.2.1, SVG Export Plug-In . SVG Version: 2.1.0 Build 116)  -->
  <defs>
    <style>
      .st0 {
        fill: none;
      }

      .st1 {
        fill: url(#linear-gradient1);
      }

      .st2 {
        fill: #d2ad15;
      }

      .st3 {
        fill: #1d6b34;
      }

      .st4 {
        fill: #155429;
      }

      .st5 {
        fill: url(#linear-gradient);
      }

      .st6 {
        fill: #636363;
      }

      .st7 {
        fill: #fff;
      }

      .st8 {
        fill: #b98f16;
      }

      .st9 {
        fill: #f6e477;
      }

      .st10 {
        fill: #e3c029;
      }

      .st11 {
        fill: #efd544;
      }

      .st12 {
        fill: #4b4b4b;
      }
    </style>
    <linearGradient id="linear-gradient" x1="389.5" y1="223.4" x2="389.5" y2="223.4" gradientTransform="translate(779 442.5) rotate(-180)" gradientUnits="userSpaceOnUse">
      <stop offset="0" stop-color="#b98f16"/>
      <stop offset="1" stop-color="#d2ad15"/>
    </linearGradient>
    <linearGradient id="linear-gradient1" x1="1435.5" y1="223.4" x2="1435.5" y2="223.4" gradientTransform="translate(-1351.5 442.5) scale(1 -1)" gradientUnits="userSpaceOnUse">
      <stop offset="0" stop-color="#b98f16"/>
      <stop offset="1" stop-color="#d2ad15"/>
    </linearGradient>
  </defs>
  <path class="st4" d="M48.5,365.6c-8.3,0-16.6.4-22,.4h-8.4v7.8c2.6.6,5.7,1.1,8.7,1.3v49.3c-3,.2-6.1.7-8.7,1.3v7.8h8.7c3.3,0,11.7.4,18.7.4,22,0,37.2-12.1,37.2-35.3s-13.3-33-34.2-33ZM46.7,423.1c-2.5,0-5.3,0-7.2-.4v-46.1c2.1-.2,5.1-.3,8.1-.3,15.6,0,21.5,8.7,21.5,23.4s-9.3,23.4-22.4,23.4ZM113.4,382.8c-14.7,0-23.4,11.4-23.4,26.3s8.7,25.4,24.5,25.4,12.2-1.1,17.8-3l-1.3-9.3c-5.1,1.7-10.1,2.6-15,2.6-9.3,0-13.3-4.7-13.4-13.6h31s.4-3.6.4-7.3c0-11.8-6.1-21.1-20.6-21.1ZM102.7,402.9c.7-6.8,4.7-10.8,10.1-10.8s9,3.7,8.8,10.8h-18.9ZM175.8,382.8c-8.2,0-14,4.1-17,10.1h-.1c.5-2.8.7-6.8.7-9.2-6.6-.2-14.2.1-20.5.9v7.7c2.9.2,6.3.6,8.7,1v40.3h12.5v-24c0-8.9,5.1-16.3,11.7-16.3s6.4,3.2,6.4,8.5v31.8h12.4v-35c0-8.7-3.6-15.8-14.8-15.8ZM396.3,400.3c0-11-4.8-17.5-20.1-17.5s-13,1.5-18.5,3.5l1.9,9.4c4.8-1.9,10.6-3.3,15.1-3.3,6.7,0,9,2.8,9,8.7v2.1c-17.4,0-28.8,5.6-28.8,17.3s5.3,14.1,14.2,14.1,13.6-4,16-9.6h.1c-.4,2.7-.5,5.7-.5,8.7,6.4.2,14,0,20.3-.9v-7.7c-2.9-.2-6.3-.6-8.7-1v-23.8ZM383.7,412.9c0,5.9-4.2,12.1-10.6,12.1s-6.1-2.6-6.1-6,3.6-7.6,16.7-7.6v1.5ZM436.9,382.9c-17.5,0-27.1,11.5-27.1,28.3s6.6,23.3,18.5,23.3,12.2-3.6,14.8-9.4h.2c-.5,2.7-.6,4.9-.6,7.4v3.1c0,8.5-4.5,12.3-14,12.3s-10.3-.9-14.7-2.5l-1.2,11.3c4.2,1,9.6,1.7,15.2,1.7,18.9,0,27-8.9,27-24v-50c-5.4-.9-11.2-1.5-18.1-1.5ZM442.6,407.6c0,8.7-4.1,16.6-11,16.6s-8.7-4.8-8.7-14.1,5.3-17.2,12.8-17.2,4.7.3,6.9.8v13.9ZM265.7,374c2.3.5,5,.9,7.4,1.1v18h-29.1v-18c2.4-.2,5.1-.6,7.4-1.1v-8h-27.8v7.8c2.6.6,5.7,1.1,8.7,1.3v49.3c-3,.2-6.1.7-8.7,1.3v7.8h27.8v-8c-2.3-.5-5-.9-7.4-1.1v-20.3h29.1v20.3c-2.4.2-5.1.6-7.4,1.1v8h27.8v-7.8c-2.6-.6-5.7-1.1-8.7-1.3v-49.3c3-.2,6.1-.7,8.7-1.3v-7.8h-27.8v8ZM341.2,400.3c0-11-4.8-17.5-20.1-17.5s-13,1.5-18.5,3.5l1.9,9.4c4.8-1.9,10.6-3.3,15.1-3.3,6.7,0,9,2.8,9,8.7v2.1c-17.4,0-28.8,5.6-28.8,17.3s5.3,14.1,14.2,14.1,13.6-4,16-9.6h.1c-.4,2.7-.5,5.7-.5,8.7,6.4.2,14,0,20.3-.9v-7.7c-2.9-.2-6.3-.6-8.7-1v-23.8ZM328.6,412.9c0,5.9-4.2,12.1-10.6,12.1s-6.1-2.6-6.1-6,3.6-7.6,16.7-7.6v1.5Z"/>
  <g>
    <path class="st3" d="M384,270.1h-86.3v48.2h86.3c62.8,0,85.9-4.8,85.9-4.8v-48.7s-23.4,5.3-85.9,5.3Z"/>
    <path class="st3" d="M185.8,257.9l15.7,36.8c11.6-.1,23.4-.2,35.4-.2,18.2,0,36,.2,53.3.4v-33.6l72.4-9.4s-10.1-1.7-37.4-3.7-66.6-1.3-66.6-1.3c0,0-15.8,5.3-21.8,6.4-6.1-1.1-21.8-6.4-21.8-6.4,0,0-39-.7-66.3,1.3-27.3,2-45.5,4.9-45.6,4.9l82.7,4.8Z"/>
    <path class="st4" d="M182.3,262.6v32.4c6.4-.1,12.7-.2,19.2-.3l-15.7-36.8-82.8-4.8v9.3c55.9-.2,79.3.2,79.3.2Z"/>
    <path class="st3" d="M174.8,270.1h-85.3c-62.5,0-85.9-5.3-85.9-5.3v48.7s23.1,4.8,85.9,4.8h85.3v-48.2Z"/>
    <path class="st4" d="M11.2,266.1c-5.3-.7-7.6-1.3-7.6-1.3v48.7s8.3,1.7,28.6,3.1c-13.5-15.1-20-33.9-21-50.5Z"/>
    <g>
      <path class="st7" d="M32.2,281.8h9.2v2.9h-2.5l5.8,16.2c.2.7.4,1.4.6,2.1h.1c.2-.7.3-1.5.6-2.1l5.7-16.2h-2.8v-2.9h9v2.9h-2.2l-8.4,21.6h-4.3l-8.5-21.6h-2.1v-2.9h-.2Z"/>
      <path class="st7" d="M60.1,303.4h2.4v-18.8c.1,0-2.5,0-2.5,0v-2.9h11c5,0,7.4,2.9,7.4,6.5s-2.7,6.2-5.8,6.5h0c1.4.2,2.3,1.4,3.1,2.8l2.7,4.5c.7,1.2,1.4,1.5,2.2,1.5h.9v2.9h-2.3c-2.1,0-3-.2-4.4-2.6l-3.4-5.7c-1-1.8-1.5-2.1-2.7-2.1h-2.1v7.6c-.1,0,2.7,0,2.7,0v2.9h-9.2v-3.1h0ZM69.6,292.7c2.8,0,4.7-1.5,4.7-4.1s-1.6-4-4.4-4h-3.3v8.1c-.1,0,3,0,3,0Z"/>
      <path class="st7" d="M84.5,303.4h2.5v-18.8h-2.8v-2.9h17.2v6.4c.1,0-3.2,0-3.2,0l-.2-3.6h-7v7.6c-.1,0,6.9,0,6.9,0v3.1h-7v8.1c-.1,0,7.4,0,7.4,0l.3-4h3.3l-.3,6.9h-17.2v-2.8h.1Z"/>
      <path class="st7" d="M105.8,303.4h2.5v-18.8c.1,0-2.5,0-2.5,0v-2.9h11.6c7.9,0,12.4,4.6,12.4,11.7s-4.6,12.8-12.4,12.8h-11.6v-2.8ZM116.2,303.4c6,0,9.3-3.6,9.3-9.8s-3.2-9-9.2-9h-4v18.8c-.1,0,3.9,0,3.9,0Z"/>
      <path class="st7" d="M132.6,303.4h2.5v-18.8c.1,0-2.7,0-2.7,0v-2.9h17.2v6.4c.1,0-3.2,0-3.2,0l-.2-3.6h-7.1v7.6c-.1,0,6.9,0,6.9,0v3.1h-7v8.1c-.1,0,7.4,0,7.4,0l.3-4h3.3l-.3,6.9h-17.2v-2.8h.1Z"/>
    </g>
    <g>
      <path class="st7" d="M322.8,303.4h2.4v-18.8c.1,0-2.5,0-2.5,0v-2.9h10.9c5,0,7.4,2.9,7.4,6.5s-2.7,6.2-5.8,6.5h0c1.4.2,2.3,1.4,3.1,2.8l2.7,4.5c.7,1.2,1.4,1.5,2.2,1.5h.9v2.9h-2.3c-2.1,0-3-.2-4.4-2.6l-3.4-5.7c-1-1.8-1.5-2.1-2.7-2.1h-2.1v7.6c-.1,0,2.7,0,2.7,0v2.9h-9.2v-3.1h.1ZM332.3,292.7c2.8,0,4.7-1.5,4.7-4.1s-1.6-4-4.4-4h-3.3v8.1c-.1,0,3,0,3,0Z"/>
      <path class="st7" d="M347.1,303.4h2.5v-18.8c.1,0-2.7,0-2.7,0v-2.9h17.2v6.4c.1,0-3.1,0-3.1,0l-.2-3.6h-7.1v7.6c-.1,0,6.9,0,6.9,0v3.1h-7v8.1c-.1,0,7.4,0,7.4,0l.3-4h3.3l-.3,6.9h-17.2v-2.8h0Z"/>
      <path class="st7" d="M384.7,288.9v-3.9c-.9-.2-2.3-.6-4.2-.6-5.8,0-8.9,3.6-8.9,9.7s3.4,9.5,8.4,9.5,3.5-.2,4.4-.4v-4.4h3.6v6.7c-1.7.5-4.8,1.2-7.7,1.2-8.8,0-13-5.5-13-12.4s5.1-12.9,13.3-12.9,6,.7,7.6,1.3v6.3h-3.5Z"/>
      <path class="st7" d="M407.3,303.4h2.5v-7.9c0,0-11.3,0-11.3,0v7.9c-.1,0,2.5,0,2.5,0v2.9h-9v-2.9h2.5v-18.8c.1,0-2.5,0-2.5,0v-2.9h9v2.9h-2.5v7.8c-.1,0,11.3,0,11.3,0v-7.8c0,0-2.5,0-2.5,0v-2.9h9v2.9h-2.5v18.8c0,0,2.5,0,2.5,0v2.9h-9v-2.9Z"/>
      <path class="st7" d="M425.6,303.4h2.5v-18.8c0,0-5.6,0-5.6,0v3.6h-3.5v-6.4h22.3v6.4c0,0-3.3,0-3.3,0v-3.6h-5.7v18.8c0,0,2.7,0,2.7,0v2.9h-9.3v-2.9h-.1Z"/>
    </g>
    <g>
      <path class="st10" d="M238,50.4c23.4,0,41,1.1,52.8,2.3l2.7-21.3c-11.5-1-33.1-3.5-56.5-3.5s-45.9,2.6-57.6,3.6l2.8,21.6c11.5-1.3,30.2-2.7,55.8-2.7ZM275.3,40.9c.2-1.8,2.3-2.9,5.3-2.9s.9,0,1.4.1c1.6.2,3,.7,4.1,1.4,1.3.8,1.9,1.9,1.7,3-.2,1.7-2.3,2.9-5.3,2.9s-.9,0-1.4-.1c-3.6-.5-6.1-2.4-5.8-4.4ZM259.1,35.6l7.2,3.9-7.4,3.6-7.2-3.9,7.4-3.6ZM236.4,34.9c3.9,0,6.8,1.7,6.8,3.9s-2.9,3.9-6.8,3.9-6.8-1.7-6.8-3.9,3-3.9,6.8-3.9ZM213.8,35.6l7.4,3.5-7.2,3.9-7.4-3.6,7.2-3.8ZM186.8,39.4c1.1-.7,2.5-1.2,4.1-1.4.5-.1.9-.1,1.4-.1,3,0,5.1,1.2,5.3,2.9.3,2.1-2.3,3.9-5.8,4.4-.5.1-.9.1-1.4.1-3,0-5.1-1.2-5.3-2.9-.2-1.1.4-2.2,1.7-3Z"/>
      <g>
        <path class="st10" d="M242.5,5.7C242.5,2.6,240,0,236.8,0s-5.7,2.5-5.7,5.7,2.5,5.7,5.7,5.7c3.1,0,5.7-2.6,5.7-5.7ZM182,9.5c0-3.1-2.5-5.7-5.7-5.7s-5.7,2.5-5.7,5.7,2.5,5.7,5.7,5.7,5.7-2.5,5.7-5.7ZM230.3,12.7c-3.1,0-5.7,2.5-5.7,5.7s2.5,5.7,5.7,5.7,5.7-2.5,5.7-5.7-2.6-5.7-5.7-5.7ZM217.3,13.6c-3.1,0-5.7,2.5-5.7,5.7s2.5,5.7,5.7,5.7,5.7-2.5,5.7-5.7c-.1-3.1-2.6-5.7-5.7-5.7ZM204.2,14.6c-3.1,0-5.7,2.5-5.7,5.7s2.5,5.7,5.7,5.7,5.7-2.5,5.7-5.7c0-3.2-2.5-5.7-5.7-5.7ZM191.2,15.5c-3.1,0-5.7,2.5-5.7,5.7s2.5,5.7,5.7,5.7,5.7-2.5,5.7-5.7c0-3.1-2.5-5.7-5.7-5.7ZM178.2,16.5c-3.1,0-5.7,2.5-5.7,5.7s2.5,5.7,5.7,5.7,5.7-2.5,5.7-5.7c0-3.2-2.6-5.7-5.7-5.7ZM243.3,12.7c-3.1,0-5.7,2.5-5.7,5.7s1.6,4.5,3.7,5.3l5.6-9.7c-.9-.8-2.2-1.3-3.6-1.3Z"/>
        <path class="st2" d="M297.3,3.9c-3.1,0-5.7,2.5-5.7,5.7s2.5,5.7,5.7,5.7,5.7-2.5,5.7-5.7-2.6-5.7-5.7-5.7ZM295.4,16.5c-3.1,0-5.7,2.5-5.7,5.7s2.5,5.7,5.7,5.7,5.7-2.5,5.7-5.7-2.6-5.7-5.7-5.7ZM282.4,15.5c-3.1,0-5.7,2.5-5.7,5.7s2.5,5.7,5.7,5.7,5.7-2.5,5.7-5.7c-.1-3.1-2.6-5.7-5.7-5.7ZM269.3,14.6c-3.1,0-5.7,2.5-5.7,5.7s2.5,5.7,5.7,5.7,5.7-2.5,5.7-5.7-2.5-5.7-5.7-5.7ZM256.3,13.6c-3.1,0-5.7,2.5-5.7,5.7s2.5,5.7,5.7,5.7,5.7-2.5,5.7-5.7-2.5-5.7-5.7-5.7ZM247,14l-5.6,9.7c.6.2,1.2.3,1.9.3,3.1,0,5.7-2.5,5.7-5.7s-.8-3.3-2-4.3Z"/>
      </g>
      <path class="st2" d="M236.4,42.6c-2.3,0-4.3-.6-5.5-1.5l-5.6,9.4c4-.1,8.2-.1,12.6-.1,23.4,0,41,1.1,52.8,2.3l2.7-21.3c-11.2-1-31.9-3.4-54.6-3.5l-4.3,7.2c.6-.1,1.2-.1,1.9-.1,3.9,0,6.8,1.7,6.8,3.9,0,2.1-2.9,3.7-6.8,3.7ZM275.3,40.9c.2-1.8,2.3-2.9,5.3-2.9s.9,0,1.4.1c1.6.2,3,.7,4.1,1.4,1.3.8,1.9,1.9,1.7,3-.2,1.7-2.3,2.9-5.3,2.9s-.9,0-1.4-.1c-3.6-.5-6.1-2.4-5.8-4.4ZM259.1,35.6l7.2,3.9-7.4,3.6-7.2-3.9,7.4-3.6Z"/>
    </g>
    <path class="st4" d="M290.2,261.3v1.2h80.6v-9.4s-3-.5-8.2-1.1l-72.4,9.3Z"/>
    <path class="st4" d="M464.6,314.4c3.6-.6,5.2-.8,5.2-.8v-48.7s-5.8,1.3-19.2,2.6c9.2,11,12.8,29.1,14,46.9Z"/>
    <g>
      <path class="st7" d="M216.8,279.8h2.1v-16.2c.1,0-2.4,0-2.4,0v-2.5h14.9v5.6c.1,0-2.7,0-2.7,0l-.2-3.1h-6.1v6.5c-.1,0,6,0,6,0v2.7h-6.1v7c-.1,0,6.4,0,6.4,0l.2-3.5h2.8l-.2,5.9h-14.8v-2.4h.1Z"/>
      <path class="st7" d="M235.4,279.8h2.1v-16.2c.1,0-2.6,0-2.6,0v-2.5h5.6l9.8,12.8c.6.8,1.5,2.2,2.1,3.2h.1v-13.5h-2.5v-2.5h7.4v2.5h-2.1v18.7h-2.9l-10.5-13.7c-.6-.8-1.2-1.6-1.5-2.2h-.1c0,.1.1,13.6.1,13.6h2.3v2.5h-7.4v-2.7h.1Z"/>
    </g>
    <path class="st5" d="M389.5,219.1h0Z"/>
    <g>
      <path class="st2" d="M464.2,119c0-11-14.7-7.5-22.8-7.5s-7.5-10.4-7.5-10.4h15.3c12.3,0,20.2,7.5,15,17.9Z"/>
      <path class="st11" d="M416.6,96.5c3.6-3.6,7.3-5.6,12.6-5.6,11.7,0,28.7-.7,31-6.9,2.1,2.2,1.9,6.5-3.1,11.5,13.2,0,15.5,3,16.9,5.8,3.4,7.3-2.5,17.7-9.7,17.7,5.2-10.4-2.7-17.9-14.9-17.9h-20.1c-1.8,0-3.8.9-5.4,2.6-3.5,3.5-3.5,9.1,0,12.6l24.1,24.3c1.5,1.5,2.6,3.3,3.5,5.1l-40-30.7c-1.7-6.4,0-13.5,5.1-18.5Z"/>
    </g>
    <path class="st8" d="M387.9,72.7c-.2-.7-.3-1.4-.4-2.1,3.5-4.1,9.4-5.8,17.4-2.4,10,4.2,19.1-3.1,19.1-3.1-6.9,13.2-16.4,8.9-24.7,6.3-4.5-1.4-8.8,0-11.4,1.3Z"/>
    <path class="st8" d="M345.8,122.3c-8.5-4.9-15.3-8.4-15.4-8.4h0l3.2,14s-9.6,15.6-14.7,24.1c.1.1.2.1.3.2,0-.1,26.6-29.9,26.6-29.9h0Z"/>
    <path class="st2" d="M391.8,100.2c0-10.3-6.9-14.5-10-15.8-4.6-.2-9.3.2-13.4,1.9,1.3,12.1,18.7,28.3,29.2,31.9.1,0,.2.1.2.1-5-3.9,3.3-18.1-6-18.1Z"/>
    <path class="st10" d="M356.4,128.6h0c-3.6-2.2-7.2-4.3-10.6-6.3h0l-26.6,29.8c-1.5-.8-3.1-1.3-4.9-1.3v10.5h0c-4.5,1-7.5,4.7-7.5,10.4h7.5v9.3c1,1.1,2.5,1.8,4.1,1.9l38-54.3h0Z"/>
    <path class="st2" d="M395.5,128.2c-10.4,6.5-31,5.6-31,5.6h0s5.8,3.6,11.9,9.4l40.6,6.4s-13.1-13-21.5-21.4Z"/>
    <path class="st2" d="M439.9,201.4c-4.7,0-18.9-1.9-18.9-12.3v-21.6l-10.8,17.7v17.9c17.4,20.1,13,43,5,52.2v6.9c5-.1,9.9-.2,14.5-.4l-1.2-5.2,6.5-11.3c0,0-2.9-36.1,4.9-43.9Z"/>
    <path class="st11" d="M356.4,128.6l-38,54.3h.2c.6,0,13.4-9.5,13.4-9.5l32.4-39.6c-2.5-1.8-5.2-3.5-8-5.2h0Z"/>
    <path class="st9" d="M368.4,86.2c-14,7.3-20.5,28.2-38,27.6,0,0,19.9,10.3,34.1,19.9,0,0,36.8,1.7,36.8-14.9-9.4,0-31.4-18.9-32.9-32.6Z"/>
    <path class="st10" d="M333.1,101.4c3-7.9,4.2-20.7,7.5-33.4l-15.9-10.1-3.8-6.6h-17.9l-3.3,5.8c6.9.7,11.3,1.2,11.5,1.2l3.1.4v25l18.8,17.7Z"/>
    <path class="st11" d="M354.6,40.6v-10.7l11,4.9c-.1-.6-.3-3.6,4.9-6.5-.2,3.2,4.5,5.6,9.9,7.3-5.6,13.1-14,33.2-12.1,50.7-14,7.3-20.5,28.2-38,27.6,0,0-4.5-2.1-6-4.7,16.8-.1,7.8-46,30.3-68.6Z"/>
    <path class="st11" d="M400.2,214.4c5.4,5.4,8.6,11.7,8.6,17.8,0,13.7-9.3,18.7-9.3,18.7-11-3.5-14.1,7.6-14.8,11.7h12.1c6,0,12.6-.1,18.3-.2v-6.9c8-9.2,12.4-32.1-5.1-52.2l-9.8,11.1Z"/>
    <path class="st11" d="M389.5,195.3v-8.1h0v1.5l-34.1,7.9-22.5,44.4c6.8.6,12.8,1.1,18.1,1.7l-2.2-5.7,27.5-39.2,13.2-2.5Z"/>
    <path class="st10" d="M339.5,200.3c-2.5,22.2-17.1,29.2-17.1,29.2,0,0-2.8-.7-5.7-.7-6.4,0-9.5,10.6-9.5,10.6,3.4.2,6.9.4,10.5.6,3,.2,5.9.3,8.8.5,2.2.2,4.3.3,6.4.5l22.6-44.4-16,3.7Z"/>
    <path class="st2" d="M389.5,174.9l-14.6-10.7-40.9,33.8s2.1,3,5.5,2.4l50-11.6v-13.9Z"/>
    <path class="st11" d="M364.5,133.8l-11.6,14.3,36.6,26.9v-6.9c0-2.3-.4-4.6-1.1-6.8-2.1-7.1-7.1-13.3-12-18-5.9-5.8-11.6-9.3-11.9-9.5h0Z"/>
    <path class="st10" d="M407.2,52.4l-9.4-7-1.6-6.7s-8.5-.9-15.7-3.2c-5.6,13.1-14,33.2-12.1,50.7,13-5.3,32.8,1.9,32.8,1.9l-3.1-8.4,4.6-5.3-13.5,1.6c-4-9-.7-13.4,8-13.4s6.4,1.8,6.4,1.8l1.9-6.1-1.6-3,2.3.2,1-3.1ZM386.4,46.4c-2.5.1-4.5-1.5-4.6-3.6,0-.2,0-.5.1-.7,3,.2,6.2.6,8.8,1-.3,1.8-2.1,3.2-4.3,3.3Z"/>
    <path class="st1" d="M83.9,219.1h0Z"/>
    <g>
      <path class="st2" d="M9.3,119c0-11,14.7-7.5,22.8-7.5s7.5-10.4,7.5-10.4h-15.3c-12.4-.1-20.2,7.5-15,17.9Z"/>
      <path class="st10" d="M56.9,96.5c-3.6-3.6-7.3-5.6-12.6-5.6-11.7,0-28.7-.7-31-6.9-2.1,2.2-1.9,6.5,3.1,11.5-13.2,0-15.5,3-16.9,5.8-3.4,7.3,2.5,17.7,9.7,17.7-5.2-10.4,2.7-17.9,14.9-17.9h20.1c1.8,0,3.8.9,5.4,2.6,3.5,3.5,3.5,9.1,0,12.6l-24.3,24.3c-1.5,1.5-2.6,3.3-3.5,5.1l40-30.7c1.8-6.4.1-13.5-4.9-18.5Z"/>
    </g>
    <path class="st8" d="M85.5,72.7c.2-.7.3-1.4.4-2.1-3.5-4.1-9.4-5.8-17.4-2.4-10,4.2-19.1-3.1-19.1-3.1,6.9,13.2,16.4,8.9,24.7,6.3,4.6-1.4,8.8,0,11.4,1.3Z"/>
    <path class="st10" d="M127.7,122.3c8.5-4.9,15.3-8.4,15.4-8.4h0l-3.2,14s9.6,15.6,14.7,24.1c-.1.1-.2.1-.3.2l-26.6-29.9h0c0,0,0,0,0,0Z"/>
    <path class="st2" d="M91.7,84.3c-3.1,1.4-10,5.6-10,15.8-9.4,0-1.1,14.2-6.1,18.1.1,0,.2-.1.2-.1,10.5-3.6,27.9-19.8,29.2-31.9-4-1.6-8.7-2.1-13.3-1.9Z"/>
    <path class="st11" d="M117.1,128.5h0c3.6-2.2,7.2-4.3,10.6-6.3h0l26.6,29.8c1.5-.8,3.1-1.3,4.9-1.3v10.5h0c4.5,1,7.5,4.7,7.5,10.4h-7.5v9.3c-1,1.1-2.5,1.8-4.1,1.9l-38-54.3c-.1.1,0,.1,0,0Z"/>
    <path class="st10" d="M78,128.2c10.4,6.5,31,5.6,31,5.6h0s-5.8,3.6-11.9,9.4l-40.7,6.5c0-.1,13.2-13.2,21.6-21.5Z"/>
    <path class="st9" d="M33.6,201.4c4.7,0,18.9-1.9,18.9-12.3v-21.6l10.8,17.7v17.9c-17.4,20.1-13,43-5,52.2v6.9c-5-.1-9.9-.2-14.5-.4l1.2-5.2-6.5-11.3c0,0,2.8-36.1-4.9-43.9Z"/>
    <path class="st10" d="M58.3,262.3c5.7.1,12.2.2,18.3.2h12.1c-.8-4.1-3.8-15.2-14.8-11.7,0,0-9.3-5-9.3-18.7s3.2-12.3,8.6-17.8l-9.8-11.2c-17.5,20.1-13.1,43-5.1,52.2v7Z"/>
    <path class="st2" d="M117,128.6l38,54.3h-.2c-.6,0-13.4-9.5-13.4-9.5l-32.4-39.7c2.5-1.7,5.2-3.4,8-5.1h0Z"/>
    <path class="st9" d="M72.2,118.9c0,16.6,36.8,14.9,36.8,14.9,14.2-9.6,34-19.9,34.1-19.9-17.5.6-23.9-20.4-38-27.6-1.5,13.6-23.6,32.6-32.9,32.6Z"/>
    <path class="st2" d="M140.4,101.4c-3-7.9-4.2-20.7-7.5-33.4l15.9-10.1,3.8-6.6h17.9l3.3,5.8c-6.9.7-11.3,1.2-11.5,1.2l-3.1.4v25l-18.8,17.7Z"/>
    <path class="st10" d="M118.8,40.6v-10.7l-11,4.9c.1-.6.3-3.6-4.9-6.5.2,3.2-4.5,5.6-9.9,7.3,5.6,13.1,14,33.2,12.1,50.7,14,7.3,20.5,28.2,38,27.6,0,0,4.5-2.1,6-4.7-16.7-.1-7.7-46-30.3-68.6Z"/>
    <path class="st11" d="M97.1,143.1h0ZM25.5,167.5c3.6,3.6,8.4,5.6,13.5,5.6s9.9-2,13.5-5.6l10.8,17.7v17.9c.1,0,20.6,23.5,20.6,23.5,0-6.5.1-58.7.1-58.7,0-2.3.4-4.6,1.1-6.8,2.1-7.1,7.1-13.3,12-18l-40.7,6.5-8.3,8.2s-9,9-15.5,2.5-3.5-9.1,0-12.6l24.3-24.3c2.4-2.4,4-5.3,4.9-8.4l-40,30.7c-3.4,7.1-2.2,15.9,3.7,21.8Z"/>
    <path class="st9" d="M84,195.2v-8.1h0v1.5l34,8,22.5,44.4c-6.8.6-12.8,1.1-18.1,1.7l2.2-5.7-27.5-39.2-13.1-2.6Z"/>
    <path class="st2" d="M133.9,200.3c2.5,22.2,17.1,29.2,17.1,29.2,0,0,2.8-.7,5.7-.7,6.4,0,9.5,10.6,9.5,10.6-3.4.2-6.9.4-10.5.6-3,.2-5.9.3-8.8.5-2.2.2-4.3.3-6.4.5l-22.5-44.4,15.9,3.7Z"/>
    <path class="st10" d="M84,174.9l14.6-10.7,40.8,33.8s-2.1,3-5.5,2.4l-50-11.6c0-5.4,0-10.3,0-13.9Z"/>
    <path class="st8" d="M109,133.7l11.6,14.3-36.6,26.9v-6.9c0-2.3.4-4.6,1.1-6.8,2.1-7.1,7.1-13.3,12-18,5.9-5.7,11.5-9.2,11.9-9.5h0Z"/>
    <path class="st11" d="M93,35.5c-7.2,2.2-15.7,3.2-15.7,3.2l-1.6,6.7-9.4,7,1,3,2.3-.2-1.6,3,1.9,6.1s2.8-1.8,6.4-1.8c8.7,0,12,4.4,8,13.4l-13.5-1.6,4.6,5.3-3.1,8.4s19.8-7.2,32.8-1.9c1.9-17.4-6.5-37.5-12.1-50.6ZM87,46.3c-2.2-.1-4-1.5-4.3-3.2,2.6-.4,5.8-.8,8.8-1,0,.2.1.5.1.7,0,2-2.1,3.6-4.6,3.5Z"/>
    <path class="st2" d="M306.9,192.3c0,39.4-70.1,53.3-70.1,53.3,0,0-70.1-13.9-70.1-53.3v-127s23.7-4.5,70.1-4.5,70.1,4.5,70.1,4.5v127Z"/>
    <path class="st8" d="M236.7,245.6s70.1-13.9,70.1-53.3v-127s-23.7-4.5-70.1-4.5-20.6.2-29,.6c63.3,2.5,88.6,11.1,88.6,11.1,0,0,.1,88.6.1,121.1,0,32.5-59.7,52-59.7,52Z"/>
    <path class="st12" d="M250.9,137.7l-5.4-.7-1.7,2.2-12.5-8c1.3,6.3,4.7,18.3,13.5,28.6,5.9,4.3,12,8.7,16.9,12.2-.4-20.6-7.4-32-9.2-36.6l-1.6,2.3Z"/>
    <path class="st7" d="M225.2,145.7c-6.6-4.7-4.4-14-.1-18.3l18.7,11.9,1.7-2.2,5.4.7,1.7-2.2,13.9,2.4c-2.6-4.1-6.9-10.8-13.4-15.3l1.7-2.2c-3.3-1.6-11-2.8-19.8-2.8h-13.5l9.5-27.2c2.5-7.3-2-13.2-6.9-13.7-7.4-.8-10.5,7.2-10.5,7.2l8.1,8.3c.2,0-10.5,25-10.5,25-1.1,2.6-1.8,6-1.8,9.6,0,7,3.1,14.1,9.6,20.4,5.5,5.4,29.4,24.1,29.4,24.1l1.9-2.6,11.6,3.4c-.2-.1-34.8-25.2-36.7-26.5Z"/>
    <path class="st6" d="M231.3,131.3l-6.2-3.9c-4.3,4.4-6.5,13.6.1,18.3,2,1.4,10.5,7.6,19.6,14.2-8.8-10.3-12.2-22.3-13.5-28.6Z"/>
    <path d="M266.4,137.9l-13.9-2.4c1.8,4.6,8.8,15.9,9.2,36.6,5.5,4,9.4,6.8,9.4,6.8l2.7-3.6,7.2,5c-.4-3.3-.9-6.4-1.6-9.3-3.1-14.7-8.2-25.6-13-33.1Z"/>
    <path class="st12" d="M254.3,223.1c-.3-.8-.9-1.5-2-1.5h-4v-19.1l-3.3,1.5v17.5h-6.1c-.7,0-2.1,1-2.5,1h-2.7c-1.1,0-1.7.7-2,1.5l-.2.6v.8c-.1.2-.1.4-.1.4h6.6l1.4-1h2.8c-1.7,1.1-3.6,2.2-4.3,2.6-.9.6-1.1,1.5-.9,2.3v.6c.1,0,.4.7.4.7.1.2.2.4.2.4l11.2-6.6h6.1v-.4l-.2-.8-.4-.5Z"/>
    <path class="st6" d="M196.3,152.4l-.6.8.4,5.4,1-1.4h.7c0,.1,4.3,7.5,4.3,7.5,0,0,.1,0,.1-.1l.5-.4.5-.4c.6-.7,1.1-1.6.5-2.7-.2-.3-.4-.8-.8-1.4l12.6,6,5.2-1.2-20.7-9.8c-.5-.8-1.1-2-1.1-2-.3-.5-1.6-.8-2.6-.3Z"/>
    <polygon points="221.6 92.2 213.4 83.9 178.4 92.2 221.6 92.2"/>
    <path class="st12" d="M195,154.1l-6.7.9s-2,2.6-3,3.9c-.7.9-.4,1.8,0,2.5l.4.5.5.5.3.3,3.4-4.6,2.8-.4c-1.3,1.8-2.7,3.7-3.2,4.3-.7.9-.4,1.8,0,2.5l.4.6.4.5.3.3,5.4-7.3-.4-5.4-.6.9Z"/>
    <path class="st12" d="M240.3,164.9c-1-.8-2.2-1.7-3.3-2.6v9.6h-.5c0,.1-15.7-7.4-15.7-7.4l-5.2,1.2,19.6,9.3,2,2.6,3.2-.5,1.2-3.1-1.4-1.8v-7.3h0Z"/>
    <path d="M226.2,83.8s-3.8,1.7-4.7,1.7-1.8-.8-1.8-1.7.9-1.7,1.8-1.7c.9.1,4.7,1.7,4.7,1.7Z"/>
    <path d="M187.7,104.7c-2.4-4.2.4-6.7,2.3-8.7,1.4-1.4,2.6-2.6,2.6-4.4s-1.3-2.8-4.6-3.3c-2-.3-4-.6-5.1-2.1-.7-.8-.9-1.8-.8-2.9.3-2.3,2.7-4,2.9-4.2.7-.5,1.6-.3,2,.4.5.7.3,1.6-.4,2-.5.4-1.6,1.4-1.7,2.2,0,.2,0,.4.2.6.4.6,1.9.8,3.3,1,2.9.4,7.2,1,7.1,6.2,0,3-1.9,4.8-3.5,6.5-1.8,1.9-3.3,3.2-2.3,5.8.7,1.7,3.6,2.6,3,3.6-.4,1.1-3.8-.7-5-2.7Z"/>
    <path d="M248.3,171.2s-1.3-1-3.3-2.6v6h0l-1.6,2.9,1.6,2.8v23.7l3.3-1.5v-22.1l1.6-2.9-1.6-2.9v-3.4Z"/>
    <line class="st0" x1="272.8" y1="176.7" x2="271.2" y2="178.9"/>
    <path class="st6" d="M272.2,132.6c-5-5.2-11-9.4-17.6-12.2l-1.6,2.2c6.5,4.5,10.9,11.1,13.4,15.3,4.8,7.5,9.9,18.4,13,33,.7,2.9,1.2,6,1.6,9.3l6.9,4.9c3.6-20.1-3.1-39.5-15.7-52.5Z"/>
    <path class="st10" d="M376.3,143.2h0ZM451.6,145.7l-40-30.7c.8,3.1,2.5,6,4.9,8.4l24.3,24.3c3.5,3.5,3.5,9.1,0,12.6-6.5,6.5-15.5-2.5-15.5-2.5l-8.3-8.2-40.7-6.5c4.9,4.7,9.9,10.9,12,18,.7,2.2,1.1,4.5,1.1,6.8,0,0,.1,52.1.1,58.7l20.5-23.5v-17.9c0,0,10.9-17.7,10.9-17.7,3.6,3.6,8.4,5.6,13.5,5.6s9.9-2,13.5-5.6c5.9-5.9,7.1-14.7,3.7-21.8Z"/>
  </g>
</svg>