<?xml version="1.0" encoding="UTF-8"?>
<svg id="Layer_1" xmlns="http://www.w3.org/2000/svg" version="1.1" viewBox="0 0 2000 746.5">
  <!-- Generator: Adobe Illustrator 29.2.1, SVG Export Plug-In . SVG Version: 2.1.0 Build 116)  -->
  <path d="M1799,753.5l-20-3.5c-186.8-46.2-149.3-332.7,51.5-319.3,54.4,3.6,112.4,41.8,116.5,99.9h-51c-5.2-28.8-32.4-47.8-59.8-52.6-140.6-24.8-173.5,190.9-49.4,225.3,54.6,15.1,114.4-5.5,125.2-65.7h-57.5l-1.5-1.5v-44.5h147v46h-33.9c-10.7,56.8-49.6,98.6-106.1,111.4l-26,4.5h-35Z"/>
  <path d="M0,746.5v-308.8c64.6,2.9,132.3-11.6,189.9,24.6,96.7,60.6,91.9,209.7-8.2,264.4-55.2,30.1-121.2,16.9-181.7,19.8ZM51,700.6c31.7-1,63.9,4.1,93.7-8.8,85-36.7,83.1-167.8-3.4-200.8-29.1-11.1-59.8-6.2-90.3-7.2v216.9Z"/>
  <path d="M1831-7c35.7,3.3,69.1,29.1,80.3,63.2s4.7,15.9,4.7,19.3v14.5h-49.5c-2.7-2.5-1.1-6.8-1.6-10.4-8.8-64.9-105.6-46.3-90.2,8.2,8,28.1,51.4,36.7,75.3,46.7,49.8,20.8,85.4,50.2,71.2,110-14.3,60-81.9,83.1-136.9,66.6-45.7-13.7-73.4-56-72.2-103.2h51c-.7,20.6,7.6,41.7,25.3,53.2,27.3,17.7,75.5,10.6,83.4-25,11.7-52-53.4-59.7-87.4-75-23.3-10.4-45.4-23.8-55.5-48.5-23.6-57.3,16.6-114.1,76.2-119.6,6.7-.6,19.3-.6,26,0Z"/>
  <rect width="51" height="308.8"/>
  <path d="M725,0l99,228.9L921,0h49v308.8h-51V119.9l-77,188.4c-1.5.9-31.8,1-35.6.5s-2.6,0-3.4-1.6l-76.1-187.3v188.9h-51V0h49Z"/>
  <polygon points="595.5 437.7 717 654.6 717 439.2 718.5 437.7 767.5 437.7 769 439.2 769 745 767.5 746.5 713.5 746.5 591 528.7 591 746.5 540 746.5 540 437.7 595.5 437.7"/>
  <polygon points="1085 0 1085 132.9 1212 132.9 1212 0 1263 0 1263 308.8 1212 308.8 1212 178.9 1085 178.9 1085 308.8 1034 308.8 1034 0 1085 0"/>
  <polygon points="940 570.7 1066 570.7 1066 439.2 1067.5 437.7 1117 437.7 1117 746.5 1067.5 746.5 1066 745 1066 615.6 940 615.6 940 745 938.5 746.5 889 746.5 889 437.7 938.5 437.7 940 439.2 940 570.7"/>
  <path d="M1496,0h51v213.4c-8.4,125.5-187.8,139.6-218.5,22.5-.8-3.1-3.5-14.1-3.5-16.5V0h49.5l1.5,1.5v214.9c0,11.5,12.4,32.3,21,40,36.8,32.8,99,4.1,99-44V0Z"/>
  <polygon points="484 437.7 484 483.7 357 483.7 357 570.7 484 570.7 484 615.6 357 615.6 357 700.6 484 700.6 484 746.5 306 746.5 306 437.7 484 437.7"/>
  <path d="M1397,746.5h-54l-13.6-38.8-114.8-.2-14.1,39h-52.5l106.6-308.9c5.3.9,33.8-1.4,35.9,1.1l106.5,307.8ZM1314,661.6l-41.5-137.9-42.5,137.9h84Z"/>
  <path d="M1408,746.5l106.2-307.2c.4-1.2,1.2-1.5,2.3-1.7,9.4-1.8,23.9,1.4,33.9,0l106.6,308.9h-52.5l-14.1-39-114.8.2-13.6,38.8h-54ZM1575,661.6l-43-137.9-41,137.9h84Z"/>
  <polygon points="538 0 538 262.8 633 262.8 633 308.8 487 308.8 487 0 538 0"/>
  <polygon points="423 0 423 308.8 371.5 308.8 370 307.3 370 1.5 371.5 0 423 0"/>
  <polygon points="1609 308.8 1609 0 1660.5 0 1662 1.5 1662 307.3 1660.5 308.8 1609 308.8"/>
  <polygon points="101 152.9 101 100.9 305.5 100.9 307 102.4 307 151.4 305.5 152.9 101 152.9"/>
  <polygon points="256 51 101 51 101 0 254.5 0 256 1.5 256 51"/>
</svg>