<?xml version="1.0" encoding="utf-8"?>
<!-- Generator: Adobe Illustrator 27.1.0, SVG Export Plug-In . SVG Version: 6.00 Build 0)  -->
<svg version="1.1" id="Layer_1" xmlns="http://www.w3.org/2000/svg" xmlns:xlink="http://www.w3.org/1999/xlink" x="0px" y="0px"
	 viewBox="0 0 635.86 47.78" style="enable-background:new 0 0 635.86 47.78;" xml:space="preserve">
<style type="text/css">
	.st0{fill:#008F00;}
	.st1{fill:#FFFF0A;}
	.st2{fill:#797979;}
	.st3{fill:#FFFFFF;}
	.st4{fill:#0A60FE;}
	.st5{fill:#FF2600;}
	.st6{fill:#FF41FF;}
	.st7{fill:#9437FF;}
	.st8{fill:#29C732;}
	.st9{fill:#941651;}
	.st10{fill:#00FDFF;}
	.st11{fill:#FD8208;}
	.st12{fill:#7A81FF;}
	.st13{fill:#AA7942;}
</style>
<g>
	<path class="st0" d="M4.61,27.66h7.81c2.66,0,4.64-1.51,4.64-4.25c0-2.76-1.98-4.25-4.64-4.25H4.61C1.95,19.17,0,20.65,0,23.41
		C0,26.15,1.95,27.66,4.61,27.66L4.61,27.66z"/>
	<path class="st1" d="M34.94,38.11c2.81,0,5.08-2.27,5.08-5.08c0-2.81-2.27-5.08-5.08-5.08c-2.81,0-5.08,2.27-5.08,5.08
		C29.86,35.84,32.13,38.11,34.94,38.11L34.94,38.11z M49.57,38.11c2.81,0,5.08-2.27,5.08-5.08c0-2.81-2.27-5.08-5.08-5.08
		c-2.81,0-5.08,2.27-5.08,5.08C44.49,35.84,46.76,38.11,49.57,38.11L49.57,38.11z M64.19,38.11c2.81,0,5.08-2.27,5.08-5.08
		c0-2.81-2.27-5.08-5.08-5.08c-2.81,0-5.08,2.27-5.08,5.08C59.11,35.84,61.38,38.11,64.19,38.11L64.19,38.11z"/>
	<path class="st2" d="M84.04,27.9H99.4c2.78,0,4.83-1.56,4.83-4.42c0-2.88-2.05-4.42-4.83-4.42H84.04c-2.76,0-4.81,1.54-4.81,4.42
		C79.23,26.34,81.29,27.9,84.04,27.9L84.04,27.9z"/>
	<path class="st3" d="M127.53,46.36c1.95,0,3.47-1.25,3.47-2.78c0-0.78-0.15-1.34-0.61-2.37c-2.51-5.74-4.03-11.28-4.03-17.29
		c0-5.66,0.95-10.35,3.83-16.85c0.42-1.05,0.61-1.59,0.61-2.37c0-1.54-1.51-2.78-3.47-2.78c-2.25,0-4.15,1.22-6.13,3.81
		c-3.64,4.74-5.22,10.89-5.22,18.24c0,7.35,1.66,13.67,5.42,18.58C123.38,45.14,125.28,46.36,127.53,46.36L127.53,46.36z"/>
	<path class="st4" d="M149.12,30.42c-2.54,0-4.25,1.29-4.49,4.03l-0.76,8.79c-0.17,2.08,1,3.76,3.44,3.76
		c2.32,0,3.47-1.03,3.96-3.27l1.71-8.06c0.1-0.46,0.15-1.05,0.15-1.54C153.12,31.84,151.61,30.42,149.12,30.42L149.12,30.42z"/>
	<path class="st5" d="M171.31,18.51c2.54,0,4.17-1.24,4.49-3.98l1.05-8.84c0.24-2.03-1.03-3.76-3.47-3.76
		c-2.32,0-3.42,1.07-3.96,3.3l-1.98,8.15c-0.1,0.39-0.15,0.93-0.15,1.42C167.31,17.09,168.82,18.51,171.31,18.51L171.31,18.51z"/>
	<path class="st6" d="M194.78,21.17c2.81,0,5.08-2.27,5.08-5.08s-2.27-5.08-5.08-5.08c-2.81,0-5.08,2.27-5.08,5.08
		S191.97,21.17,194.78,21.17L194.78,21.17z M194.78,38.11c2.81,0,5.08-2.27,5.08-5.08c0-2.81-2.27-5.08-5.08-5.08
		c-2.81,0-5.08,2.27-5.08,5.08C189.7,35.84,191.97,38.11,194.78,38.11L194.78,38.11z"/>
	<path d="M221.54,38.33c3.17,0,4.86-1.39,5.57-4.61l3.27-13.84h0.17l3.3,13.77c0.73,3.27,2.42,4.69,5.66,4.69
		c3.1,0,4.71-1.44,5.64-4.66l4.78-16.67c0.32-1.17,0.49-1.9,0.49-2.73c0-2.12-1.68-3.64-4.05-3.64c-2.15,0-3.59,1.37-4.03,3.64
		l-3.3,15.7h-0.17l-3.39-15.33c-0.54-2.61-2.25-4-4.83-4c-2.61,0-4.32,1.39-4.83,3.98l-3.37,15.36h-0.17l-3.3-15.62
		c-0.46-2.34-1.93-3.71-4.08-3.71c-2.42,0-4.17,1.54-4.17,3.69c0,0.85,0.17,1.59,0.51,2.78l4.79,16.63
		C216.93,36.89,218.52,38.33,221.54,38.33L221.54,38.33z"/>
	<path d="M259.41,47.56c6.54,0,10.08-2.78,12.65-10.03l7.32-20.41c0.29-0.83,0.51-1.9,0.51-2.64c0-2.25-1.73-3.86-4.22-3.86
		c-2.22,0-3.51,1.07-4.2,3.47l-4.98,17.19h-0.15l-4.98-17.09c-0.71-2.59-1.88-3.57-4.2-3.57c-2.56,0-4.52,1.71-4.52,4.03
		c0,0.73,0.2,1.73,0.54,2.61l8.1,21.61l-0.22,0.51c-0.78,1.17-2.03,1.46-3.08,1.46c-0.42,0-0.73-0.02-1.15-0.02
		c-1.9,0-3.1,1.05-3.1,2.76C253.75,46.14,255.75,47.56,259.41,47.56L259.41,47.56z"/>
	<path d="M294.05,38.4c7.4,0,12.35-3.52,12.35-9.08c0-3.98-2.47-6.15-8.18-7.27l-4.61-0.9c-2.54-0.51-3.35-1.24-3.35-2.39
		c0-1.44,1.42-2.37,3.52-2.37c2.54,0,3.86,1.37,5.17,2.68c0.73,0.68,1.98,1.08,2.95,1.08c2.25,0,3.3-1.22,3.3-2.88
		c0-0.41-0.07-0.83-0.22-1.24c-0.95-2.93-5.05-5.47-11.13-5.47c-7.35,0-11.91,3.35-11.91,8.69c0,4.03,2.71,6.79,7.96,7.81l4.64,0.93
		c2.42,0.49,3.27,1.12,3.27,2.3c0,1.44-1.44,2.29-3.69,2.29c-2.42,0-4.08-0.73-5.54-2.34c-1.24-1.22-2.39-1.78-3.76-1.78
		c-1.95,0-3.37,1.34-3.37,3.25c0,0.44,0.12,0.95,0.32,1.46C283.02,36.21,287.27,38.4,294.05,38.4L294.05,38.4z"/>
	<path d="M313.85,8.47c2.51,0,4.42-1.83,4.42-4.22c0-2.42-1.9-4.25-4.42-4.25c-2.52,0-4.44,1.83-4.44,4.25
		C309.41,6.64,311.34,8.47,313.85,8.47L313.85,8.47z M313.85,38.33c2.71,0,4.32-1.64,4.32-4.49V15.11c0-2.83-1.61-4.49-4.32-4.49
		c-2.73,0-4.32,1.66-4.32,4.49v18.73C309.53,36.69,311.12,38.33,313.85,38.33L313.85,38.33z"/>
	<path d="M332.04,38.33c3.17,0,4.86-1.39,5.57-4.61l3.27-13.84h0.17l3.3,13.77c0.73,3.27,2.42,4.69,5.66,4.69
		c3.1,0,4.71-1.44,5.64-4.66l4.79-16.67c0.32-1.17,0.49-1.9,0.49-2.73c0-2.12-1.68-3.64-4.05-3.64c-2.15,0-3.59,1.37-4.03,3.64
		l-3.3,15.7h-0.17l-3.39-15.33c-0.54-2.61-2.25-4-4.83-4c-2.61,0-4.32,1.39-4.83,3.98l-3.37,15.36h-0.17l-3.3-15.62
		c-0.46-2.34-1.93-3.71-4.08-3.71c-2.42,0-4.18,1.54-4.18,3.69c0,0.85,0.17,1.59,0.51,2.78l4.79,16.63
		C327.43,36.89,329.01,38.33,332.04,38.33L332.04,38.33z"/>
	<path d="M369.91,47.56c6.54,0,10.08-2.78,12.65-10.03l7.32-20.41c0.29-0.83,0.51-1.9,0.51-2.64c0-2.25-1.73-3.86-4.22-3.86
		c-2.22,0-3.51,1.07-4.2,3.47l-4.98,17.19h-0.15l-4.98-17.09c-0.71-2.59-1.88-3.57-4.2-3.57c-2.56,0-4.52,1.71-4.52,4.03
		c0,0.73,0.2,1.73,0.54,2.61l8.11,21.61l-0.22,0.51c-0.78,1.17-2.03,1.46-3.08,1.46c-0.42,0-0.73-0.02-1.15-0.02
		c-1.9,0-3.1,1.05-3.1,2.76C364.24,46.14,366.25,47.56,369.91,47.56L369.91,47.56z"/>
	<path d="M404.82,47.78c9.08,0,14.21-4.1,14.21-11.3V14.97c0-2.98-1.78-4.35-4.27-4.35c-2.49,0-4.37,1.37-4.37,4.35v0.9h-0.17
		c-1.2-2.98-4.1-5.08-7.96-5.08c-6.79,0-10.69,4.74-10.69,13.06c0,8.06,4.03,12.96,10.57,12.96c3.91,0,6.98-1.93,8.03-4.74h0.17
		v4.25c0,3-2.08,4.91-5.64,4.91c-2.27-0.02-4.13-1.05-5.96-2.59c-0.86-0.73-1.78-1.05-2.83-1.05c-2.1,0-3.42,1.32-3.42,3.03
		c0,0.71,0.15,1.44,0.56,2.17C394.69,45.56,398.89,47.75,404.82,47.78L404.82,47.78z M405.41,30.69c-3.13,0-4.98-2.39-4.98-6.69
		c0-4.27,1.88-6.91,4.98-6.91c3.08,0,5,2.66,5,6.91C410.41,28.3,408.51,30.69,405.41,30.69L405.41,30.69z"/>
	<path class="st7" d="M436.71,18.51c2.54,0,4.17-1.24,4.49-3.98l1.05-8.84c0.24-2.03-1.02-3.76-3.47-3.76
		c-2.32,0-3.42,1.07-3.95,3.3l-1.98,8.15c-0.1,0.39-0.15,0.93-0.15,1.42C432.7,17.09,434.22,18.51,436.71,18.51L436.71,18.51z
		 M449.26,18.51c2.54,0,4.15-1.24,4.39-3.98l0.78-8.84c0.17-2.03-1.02-3.76-3.47-3.76c-2.32,0-3.49,1.05-3.96,3.3l-1.71,8.15
		c-0.07,0.39-0.15,0.93-0.15,1.42C445.16,17.09,446.77,18.51,449.26,18.51L449.26,18.51z"/>
	<path class="st8" d="M470.24,38.11c2.81,0,5.08-2.27,5.08-5.08c0-2.81-2.27-5.08-5.08-5.08c-2.81,0-5.08,2.27-5.08,5.08
		C465.16,35.84,467.43,38.11,470.24,38.11L470.24,38.11z"/>
	<path class="st9" d="M492.82,21.17c2.81,0,5.08-2.27,5.08-5.08s-2.27-5.08-5.08-5.08c-2.81,0-5.08,2.27-5.08,5.08
		S490.01,21.17,492.82,21.17L492.82,21.17z M492.8,30.42c-2.54,0-4.25,1.29-4.49,4.03l-0.76,8.79c-0.17,2.08,1,3.76,3.44,3.76
		c2.32,0,3.47-1.03,3.96-3.27l1.71-8.06c0.1-0.46,0.15-1.05,0.15-1.54C496.8,31.84,495.29,30.42,492.8,30.42L492.8,30.42z"/>
	<path class="st10" d="M512.68,27.9h40.36c2.78,0,4.83-1.56,4.83-4.42c0-2.88-2.05-4.42-4.83-4.42h-40.36
		c-2.76,0-4.81,1.54-4.81,4.42C507.87,26.34,509.92,27.9,512.68,27.9L512.68,27.9z"/>
	<path class="st11" d="M578.57,27.17c1.98,0,3.3-0.86,4.03-2.61c0.64-1.51,1.2-2.25,4.61-4.2c3.74-2.15,5.32-4.57,5.32-8.11
		c0-6.13-5.03-10.06-12.84-10.06c-5.79,0-10.03,2.12-11.72,5.08c-0.54,0.93-0.81,1.93-0.81,2.98c-0.02,2.47,1.69,4.1,4.32,4.1
		c1.88,0,3.54-0.9,4.34-2.51c0.73-1.44,1.81-2.12,3.35-2.12c1.78,0,3.12,1.17,3.12,2.76c0,2-0.81,2.88-4.27,4.88
		c-2.44,1.39-3.86,3.03-3.86,5.49C574.18,25.44,575.96,27.17,578.57,27.17L578.57,27.17z M578.72,38.74c2.86,0,5.2-2.15,5.2-4.88
		c0-2.71-2.34-4.86-5.2-4.86c-2.86,0-5.18,2.15-5.18,4.86C573.55,36.6,575.86,38.74,578.72,38.74L578.72,38.74z"/>
	<path class="st12" d="M607.93,18.21c2.49,0,4.13-1.56,4.13-4.05V6.01c0-2.49-1.64-4.08-4.13-4.08s-4.18,1.59-4.18,4.08v8.15
		C603.75,16.65,605.44,18.21,607.93,18.21L607.93,18.21z"/>
	<path class="st13" d="M630.68,26.64c2.86,0,4.3-1.66,4.4-4.59l0.51-13.67c0.03-0.51,0.05-1.07,0.05-1.49
		c0-3.15-1.78-4.96-4.93-4.96c-3.15,0-4.98,1.81-4.98,4.96c0,0.41,0.02,0.98,0.05,1.49l0.51,13.67
		C626.39,24.98,627.8,26.64,630.68,26.64L630.68,26.64z M630.68,38.74c2.83,0,5.18-2.15,5.18-4.88c0-2.71-2.34-4.86-5.18-4.86
		c-2.88,0-5.2,2.15-5.2,4.86C625.48,36.6,627.8,38.74,630.68,38.74L630.68,38.74z"/>
</g>
</svg>
