<?xml version="1.0" encoding="UTF-8"?>
<svg id="Layer_1" xmlns="http://www.w3.org/2000/svg" version="1.1" viewBox="0 0 489.4 329.4">
  <!-- Generator: Adobe Illustrator 29.2.1, SVG Export Plug-In . SVG Version: 2.1.0 Build 116)  -->
  <defs>
    <style>
      .st0 {
        fill: #231f20;
      }
    </style>
  </defs>
  <g>
    <path class="st0" d="M17.8,64.2C10.1,64.2,3.8,61.4,0,54.8l10.2-6.9c1.8,3.2,4.2,5.4,8.1,5.4s3.4-.4,3.4-2-1.2-2.2-5.6-3.9l-2.3-.9c-7.7-3-11.7-8-11.7-14.2s6.7-13.7,15.2-13.7,10.6,2.1,14,7l-7.6,7.5c-1.7-2.4-3.6-4-6.4-4s-3.2.6-3.2,2,1.4,2.3,5.8,4l1.9.7c8.4,3.2,11.8,7.8,11.8,14.3s-7,14.1-16,14.1Z"/>
    <path class="st0" d="M43,49.9v-18.9h-5.7l-2.9-11.7h8.7v-6.6l13.3-6.6v13.3h14l-2.9,11.7h-11.1v15.1c0,3.7,1.5,5.2,5.1,5.2h7.2v12.2h-12.2c-8.3,0-13.5-5.2-13.5-13.6Z"/>
    <path class="st0" d="M82.9,0c4.4,0,8,3.5,8,8s-.6,3.7-1.8,5h-12.4c-1.1-1.3-1.8-3.1-1.8-5,0-4.4,3.5-8,8-8ZM76.2,63.5V19.3h13.4v44.2h-13.4Z"/>
    <path class="st0" d="M120,30.9c-2.8,0-5.6,1.3-7.3,3.4v29.2h-13.3V19.3h13.3v2.7c2.6-2,6.4-3.4,10.1-3.4s9.5,1.9,12.6,5.4c2.6-2.7,7.3-5.4,14.1-5.4,13.2,0,18.6,9.2,18.6,20.2v24.7h-13.3v-22.3c0-5.7-1.7-10.3-7-10.3s-5.8,1.5-7.6,3.8c.2,1.3.3,2.7.3,4.2v24.7h-13.3v-22.3c0-5.7-1.7-10.3-7-10.3Z"/>
    <path class="st0" d="M206.1,60.2c-2.7,2.5-6.8,4-10.5,4-11.9,0-18.9-8.2-18.9-20.2v-24.7h13.3v22.3c0,6,2.5,10.4,7.8,10.4s6.5-1.6,8.3-4.5v-28.2h13.3v44.2h-13.3v-3.3Z"/>
    <path class="st0" d="M229.1.7h13.4v62.8h-13.4V.7Z"/>
    <path class="st0" d="M249.6,41.4c0-13,9.2-22.8,22.8-22.8s21.3,7.3,21.3,21.3,0,2.6-.3,3.9h-31c.7,5.9,5.7,8.2,9.6,8.2s7.7-2.3,9.5-5.6l10.6,7.2c-4.1,6.4-11.2,10.6-20,10.6s-22.5-9.2-22.5-22.8ZM280.6,36v-.5c-1-4.3-4.8-6.2-8.9-6.2s-7.8,1.4-9,6.7h17.9Z"/>
    <path class="st0" d="M322.1,31.6c-2.7,0-5.9,1.1-8,2.9v28.9h-13.3V19.3h13.3v3.9c2.5-3.1,5.7-4.6,10.1-4.6s3.1.2,4.8.7v13.9c-2-1.1-4.5-1.5-6.8-1.5Z"/>
    <path class="st0" d="M341.3,0c4.4,0,8,3.5,8,8s-.6,3.7-1.8,5h-12.4c-1.2-1.3-1.8-3.1-1.8-5,0-4.4,3.5-8,8-8ZM334.6,63.5V19.3h13.4v44.2h-13.4Z"/>
    <path class="st0" d="M378.9,30.8c-2.6,0-5.7,1.3-8,3.8v28.9h-13.3V19.3h13.3v2.7c2.7-2.1,6.3-3.4,10.2-3.4,12.5,0,19.3,8.3,19.3,20.2v24.7h-13.3v-22.3c0-5.9-2.3-10.4-8.1-10.4Z"/>
    <path class="st0" d="M409.4,75.7l6-11.8c3.5,2.7,7.9,4.5,13,4.5s10.1-1.8,10.1-7.1-.2-2.4-1.1-3.7c-2.6,2.1-6.2,3.4-9.8,3.4-13.3,0-20.9-10.4-20.9-21.2s7.5-21.2,20.9-21.2,7.2,1.2,9.7,3.4v-2.7h13.3v35.6c1.3,3.1,1.9,6,1.9,8.7,0,12.5-11.7,17.1-23.2,17.1s-13.6-.9-19.9-4.9ZM429.3,30.8c-5.9,0-9.2,4.5-9.2,9s3.3,9,9.2,9,6-1.3,8-3.7v-10.6c-1.9-2.4-4.7-3.7-8-3.7Z"/>
    <path class="st0" d="M473.4,64.2c-7.7,0-14-2.7-17.8-9.4l10.2-6.9c1.8,3.2,4.2,5.4,8.1,5.4s3.4-.4,3.4-2-1.2-2.2-5.6-3.9l-2.3-.9c-7.7-3-11.7-8-11.7-14.2s6.7-13.7,15.2-13.7,10.6,2.1,14,7l-7.6,7.5c-1.7-2.4-3.6-4-6.4-4s-3.2.6-3.2,2,1.4,2.3,5.8,4l1.9.7c8.4,3.2,11.8,7.8,11.8,14.3s-7,14.1-16,14.1Z"/>
  </g>
  <g>
    <path class="st0" d="M6.6,119.3H.9v-11.7h6.5c-1.7-1.9-2.7-4.5-2.7-7.3,0-6.3,4.6-11.2,11.9-11.2h13.7v11.7h-8.7c-3.1,0-4.3,1.5-4.3,3.4s1.5,3.4,3.4,3.4h9.5v11.7h-10.3v32.5H6.6v-32.5Z"/>
    <path class="st0" d="M79.3,129.8c0,12.6-10.3,22.8-23,22.8s-23-10.3-23-22.8,10.3-22.8,23-22.8,23,10.3,23,22.8ZM65.9,129.8c0-6.1-4.1-10.3-9.5-10.3s-9.5,4.2-9.5,10.3,4.1,10.3,9.5,10.3,9.5-4.2,9.5-10.3Z"/>
    <path class="st0" d="M107.7,119.2c-2.6,0-5.7,1.3-8,3.8v28.9h-13.3v-44.2h13.3v2.7c2.7-2.1,6.3-3.4,10.2-3.4,12.5,0,19.3,8.3,19.3,20.2v24.7h-13.3v-22.3c0-5.9-2.3-10.4-8.1-10.4Z"/>
    <path class="st0" d="M157.3,152.6c-13.1,0-21.4-10.7-21.4-22.8s8.3-22.8,21.4-22.8,7.2,1.2,9.7,3.4v-21.2h13.3v62.8h-13.3v-2.7c-2.6,2.1-6.1,3.4-9.7,3.4ZM167.1,136.7v-13.8c-1.8-2.4-4.2-3.7-7.5-3.7-6.4,0-10.2,4.8-10.2,10.6s3.8,10.6,10.2,10.6,5.7-1.3,7.5-3.7Z"/>
    <path class="st0" d="M203.1,152.6c-7.7,0-14-2.7-17.8-9.4l10.2-6.9c1.8,3.2,4.2,5.4,8.1,5.4s3.4-.4,3.4-2-1.2-2.2-5.6-3.9l-2.3-.9c-7.7-3-11.7-8-11.7-14.2s6.7-13.7,15.2-13.7,10.6,2.1,14,7l-7.6,7.5c-1.7-2.4-3.6-4-6.4-4s-3.2.6-3.2,2,1.4,2.3,5.8,4l1.9.7c8.4,3.2,11.8,7.8,11.8,14.3s-7,14.1-16,14.1Z"/>
  </g>
  <g>
    <path class="st0" d="M2.1,218.2c0-12.6,10.3-22.8,23-22.8s15.3,4.2,19.4,10.4l-10.6,7.5c-1.8-3.3-4.9-5.5-8.8-5.5s-9.5,4.2-9.5,10.3,4.1,10.3,9.5,10.3,7-2.2,8.8-5.5l10.6,7.5c-4.1,6.3-11.2,10.4-19.4,10.4-12.7,0-23-10.3-23-22.8Z"/>
    <path class="st0" d="M71.4,208.4c-2.7,0-5.9,1.1-8,2.9v28.9h-13.3v-44.2h13.3v3.9c2.5-3.1,5.7-4.6,10.1-4.6s3.1.2,4.8.7v13.9c-2-1.1-4.5-1.5-6.8-1.5Z"/>
    <path class="st0" d="M81.3,218.2c0-13,9.2-22.8,22.8-22.8s21.3,7.3,21.3,21.3,0,2.6-.3,3.9h-31c.7,5.9,5.7,8.2,9.6,8.2s7.7-2.3,9.5-5.6l10.6,7.2c-4.1,6.4-11.2,10.6-20,10.6s-22.5-9.2-22.5-22.8ZM112.3,212.8v-.5c-1-4.3-4.8-6.2-8.9-6.2s-7.8,1.4-9,6.7h17.9Z"/>
    <path class="st0" d="M151.3,241c-13.1,0-21.4-10.7-21.4-22.8s8.3-22.8,21.4-22.8,7.2,1.2,9.7,3.4v-2.7h13.3v44.2h-13.3v-2.7c-2.6,2.1-6.1,3.4-9.7,3.4ZM161.1,225.1v-13.8c-1.8-2.4-4.2-3.7-7.5-3.7-6.4,0-10.2,4.8-10.2,10.6s3.8,10.6,10.2,10.6,5.7-1.3,7.5-3.7Z"/>
    <path class="st0" d="M186.4,226.6v-18.9h-5.7l-2.9-11.7h8.7v-6.6l13.3-6.6v13.3h14l-2.9,11.7h-11.1v15.1c0,3.7,1.5,5.2,5.1,5.2h7.2v12.2h-12.2c-8.3,0-13.5-5.2-13.5-13.6Z"/>
    <path class="st0" d="M226.4,176.8c4.4,0,8,3.5,8,8s-.6,3.7-1.8,5h-12.4c-1.1-1.3-1.8-3.1-1.8-5,0-4.4,3.5-8,8-8ZM219.7,240.3v-44.2h13.4v44.2h-13.4Z"/>
    <path class="st0" d="M240.2,218.2c0-13,9.2-22.8,22.8-22.8s21.3,7.3,21.3,21.3,0,2.6-.3,3.9h-31c.7,5.9,5.7,8.2,9.6,8.2s7.7-2.3,9.5-5.6l10.6,7.2c-4.1,6.4-11.2,10.6-20,10.6s-22.5-9.2-22.5-22.8ZM271.1,212.8v-.5c-1-4.3-4.8-6.2-8.9-6.2s-7.8,1.4-9,6.7h17.9Z"/>
    <path class="st0" d="M319.4,196.1h15.4l-25.7,44.9-25.7-44.9h15.4l10.3,19.3,10.3-19.3Z"/>
    <path class="st0" d="M332.5,218.2c0-13,9.2-22.8,22.8-22.8s21.3,7.3,21.3,21.3,0,2.6-.3,3.9h-31c.7,5.9,5.7,8.2,9.6,8.2s7.7-2.3,9.5-5.6l10.6,7.2c-4.1,6.4-11.2,10.6-20,10.6s-22.5-9.2-22.5-22.8ZM363.5,212.8v-.5c-1-4.3-4.8-6.2-8.9-6.2s-7.8,1.4-9,6.7h17.9Z"/>
  </g>
  <g>
    <path class="st0" d="M11.4,265.2c4.4,0,8,3.5,8,8s-.6,3.7-1.8,5H5.2c-1.1-1.3-1.8-3.1-1.8-5,0-4.4,3.5-8,8-8ZM4.7,328.7v-44.2h13.4v44.2H4.7Z"/>
    <path class="st0" d="M49.1,295.9c-2.6,0-5.7,1.3-8,3.8v28.9h-13.3v-44.2h13.3v2.7c2.7-2.1,6.3-3.4,10.2-3.4,12.5,0,19.3,8.3,19.3,20.2v24.7h-13.3v-22.3c0-5.9-2.3-10.4-8.1-10.4Z"/>
    <path class="st0" d="M98.7,329.4c-13.1,0-21.4-10.7-21.4-22.8s8.3-22.8,21.4-22.8,7.2,1.2,9.7,3.4v-21.2h13.3v62.8h-13.3v-2.7c-2.6,2.1-6.1,3.4-9.7,3.4ZM108.5,313.4v-13.8c-1.8-2.4-4.2-3.7-7.5-3.7-6.4,0-10.2,4.8-10.2,10.6s3.8,10.6,10.2,10.6,5.7-1.3,7.5-3.7Z"/>
    <path class="st0" d="M160.3,325.4c-2.7,2.5-6.8,4-10.5,4-11.9,0-18.9-8.2-18.9-20.2v-24.7h13.3v22.3c0,6,2.5,10.4,7.8,10.4s6.5-1.6,8.3-4.5v-28.2h13.3v44.2h-13.3v-3.3Z"/>
    <path class="st0" d="M196.4,329.4c-7.7,0-14-2.7-17.8-9.4l10.2-6.9c1.8,3.2,4.2,5.4,8.1,5.4s3.4-.4,3.4-2-1.2-2.2-5.6-3.9l-2.3-.9c-7.7-3-11.7-8-11.7-14.2s6.7-13.7,15.2-13.7,10.6,2.1,14,7l-7.6,7.5c-1.7-2.4-3.6-4-6.4-4s-3.2.6-3.2,2,1.4,2.3,5.8,4l1.9.7c8.4,3.2,11.8,7.8,11.8,14.3s-7,14.1-16,14.1Z"/>
    <path class="st0" d="M221.6,315v-18.9h-5.7l-2.9-11.7h8.7v-6.6l13.4-6.6v13.3h14l-2.9,11.7h-11v15.1c0,3.7,1.5,5.2,5.1,5.2h7.2v12.2h-12.2c-8.3,0-13.5-5.2-13.5-13.6Z"/>
    <path class="st0" d="M276.2,296.8c-2.7,0-5.9,1.1-8,2.9v28.9h-13.3v-44.2h13.3v3.9c2.5-3.1,5.7-4.6,10.1-4.6s3.1.2,4.8.7v13.9c-2-1.1-4.5-1.5-6.8-1.5Z"/>
    <path class="st0" d="M295.4,265.2c4.4,0,8,3.5,8,8s-.6,3.7-1.8,5h-12.4c-1.2-1.3-1.8-3.1-1.8-5,0-4.4,3.5-8,8-8ZM288.7,328.7v-44.2h13.4v44.2h-13.4Z"/>
    <path class="st0" d="M309.2,306.6c0-13,9.2-22.8,22.8-22.8s21.3,7.3,21.3,21.3,0,2.6-.3,3.9h-31c.7,5.9,5.7,8.2,9.6,8.2s7.7-2.3,9.5-5.6l10.6,7.2c-4.1,6.4-11.2,10.6-20,10.6s-22.5-9.2-22.5-22.8ZM340.1,301.2v-.5c-1-4.3-4.8-6.2-8.9-6.2s-7.8,1.4-9,6.7h17.9Z"/>
  </g>
</svg>