<?xml version="1.0" encoding="UTF-8"?>
<svg id="Laag_1" xmlns="http://www.w3.org/2000/svg" version="1.1" viewBox="0 0 374.5 185.2">
  <!-- Generator: Adobe Illustrator 29.7.0, SVG Export Plug-In . SVG Version: 2.1.1 Build 138)  -->
  <defs>
    <style>
      .st0 {
        fill: #231f20;
      }

      .st1 {
        fill: #939598;
      }
    </style>
  </defs>
  <path class="st0" d="M40.9,20.8c-2.8-11.7-8.8-16.2-15.2-16.2s-10.4,4-10.4,10.2,8.3,11.2,14.9,13.9c9.1,3.8,18.9,8.9,18.9,22.1s-6,21.2-26,21.4c-6.6,0-16.5-1.5-21.6-6.2l-1.5-17.9h3.7c3.8,12.5,11.4,19.5,19,19.5s11.3-3.5,11.4-10.9c0-6.4-4.2-10.9-13.3-14.7C12,38.3.9,32.9.9,20.5S9,0,25.8,0s13.5,1.2,18.7,4.4v16.4h-3.6Z"/>
  <path class="st0" d="M74.6,26.7v28.5c0,6.4,2.6,9.2,6.4,9.2s4.3-.4,5.7-1l1.1,3.1c-5.6,3.5-11.8,5.4-15.9,5.4s-12.4-3.8-12.4-12.9V26.7h-5.8v-5h6.3l8.8-12.6h5.8v12.6h10.4v5h-10.4Z"/>
  <path class="st0" d="M113.7,62c0,4.2.9,4.5,8.6,4.9v3.8h-30.2v-3.8c5.7-.3,6.5-.7,6.5-4.9v-29.4c0-4-.8-4.9-2.4-5.1l-3.5-.5v-3.6l19.5-2.9,1.2,8.8c5.8-6.1,9.1-8.8,13.3-8.8s7,2.7,7,7-.5,4.2-1.6,5.7-3.1,2.6-5.1,2.6-3.3-.8-4.6-1.6c-2.2-1.3-3.7-2.1-5.3-2.1-2.4,0-3.4,2.3-3.4,7.5v22.4Z"/>
  <path class="st0" d="M174.4,67.3c7,0,9.9-7.7,9.9-21.1s-2.9-21.1-9.9-21.1v-4.6c18.1,0,25.8,9.7,25.8,25.7s-7.7,25.7-25.8,25.7v-4.6Z"/>
  <path class="st1" d="M141.4,67.3c7,0,9.9-7.7,9.9-21.1s-2.9-21.1-9.9-21.1v-4.6c18.1,0,25.8,9.7,25.8,25.7s-7.7,25.7-25.8,25.7v-4.6Z"/>
  <path class="st0" d="M227.8,62.7c0,3.3,1.1,3.8,3.2,4l2.1.2v3.8h-26.9v-3.8c5.7-.3,6.5-.7,6.5-4.9v-29.4c0-4-.8-4.9-2.4-5.1l-3.5-.5v-3.6l19.7-2.9,1.3,6.9c5.5-3.5,10.1-6.9,16.6-6.9s11.6,3.9,13.6,7.5c4.3-2.7,10.5-7.5,17.4-7.5,10.6,0,15.5,6,15.6,15.5v26c0,4.2.8,4.6,6.5,4.9v3.8h-26.9v-3.8l2.1-.2c2.1-.2,3.2-.7,3.2-4v-24.9c-.2-6.3-3.1-9.7-7.8-9.6-3.6,0-7,2.2-8.3,7.1-.3,1.2-.4,3.2-.4,4.8v22.6c0,3.3,1.1,3.8,3.2,4l2.1.2v3.8h-25.7v-3.8l2.1-.2c2.1-.2,3.2-.7,3.2-4v-24.9c0-5.7-2.3-9.6-7.2-9.6s-7.7,2.3-8.9,7.2c-.3,1.3-.4,3.1-.4,4.7v22.6Z"/>
  <path class="st0" d="M91.4,147.6c-3.4,8.8-9.9,14.6-21.8,14.6-18.6,0-24.5-12.1-24.5-25.7s6.7-25.7,24.7-25.7,22.4,12.6,22.4,20.8-1.8,4.2-5.4,4.2h-25.8c0,10.5,3.4,18.7,13.4,18.7s10.4-3.2,13.4-8.9l3.6,2ZM73.4,131c2.3,0,3.1-.6,3.1-3.3,0-4.7-1-12.3-7.1-12.3s-8.4,8.4-8.4,15.6h12.4Z"/>
  <path class="st0" d="M150,152.3c0,4.2.8,4.6,6.5,4.9v3.8h-26.9v-3.8l2.1-.2c2.1-.2,3.2-.7,3.2-4v-25.4c-.2-6-2.8-9.1-7.9-9.1s-6.9,2.3-8.2,4.9c-.7,1.4-1,3.7-1,5.9v23.7c0,3.3,1.1,3.8,3.2,4l2.1.2v3.8h-26.9v-3.8c5.7-.3,6.5-.7,6.5-4.9v-29.4c0-4-.8-4.9-2.4-5.1l-3.5-.5v-3.6l19.7-2.9,1.3,6.9c6.6-3.9,11.3-6.9,17.1-6.9,10.3,0,15,6,15.1,15.4v26.1Z"/>
  <path class="st0" d="M263.7,159.2c-3.3,1.3-9.6,3-14.8,3s-6.5-2.7-7.8-5.8c-3.5,2.3-7.9,5.8-14.3,5.8-10.1,0-15.1-7-15.1-14.5s2.7-9.8,10.6-12.5c6.5-2.2,14.9-4.7,18.4-7.1v-5.3c0-5.7-2.9-7.4-5.8-7.4s-6,1.5-8.8,10c-.8,2.4-1.9,4-4.1,4s-9-1.8-9-6.3c0-6.5,9-12.3,23.7-12.3s18.7,7.8,18.7,14v23.1c0,5.9,1.9,7.1,3.2,7.5,1.5.5,3.5.6,4.8.5l.3,3.3ZM240.7,133.1c-2.4,1.1-5.9,2.5-9,4.2-3,1.7-4.6,4-4.6,8.7s3.5,8.4,7.4,8.4,6-1.4,6.2-6.8v-14.5Z"/>
  <path class="st0" d="M318.1,159.2c-3.3,1.3-9.6,3-14.8,3s-6.5-2.7-7.8-5.8c-3.5,2.3-7.9,5.8-14.3,5.8-10.1,0-15.1-7-15.1-14.5s2.7-9.8,10.6-12.5c6.5-2.2,14.9-4.7,18.4-7.1v-5.3c0-5.7-2.9-7.4-5.8-7.4s-6,1.5-8.8,10c-.8,2.4-1.9,4-4.1,4s-9-1.8-9-6.3c0-6.5,9-12.3,23.7-12.3s18.7,7.8,18.7,14v23.1c0,5.9,1.9,7.1,3.2,7.5,1.5.5,3.5.6,4.8.5l.3,3.3ZM295.1,133.1c-2.4,1.1-5.9,2.5-9,4.2-3,1.7-4.6,4-4.6,8.7s3.5,8.4,7.4,8.4,6-1.4,6.2-6.8v-14.5Z"/>
  <path class="st0" d="M349.8,150.5c10.5,0,19.8,3.7,19.8,15.7s-3.8,12.4-9.3,15.3c-5,2.7-12.3,3.7-16.7,3.7-14.3,0-24.7-4.8-24.7-14.6s7.4-8.6,11.6-9.5v-.2c-4.4-1-9.2-5-9.2-9.4s4.2-7.6,10.7-9.2v-.2c-6.1-1-12.2-6-12.2-14.3s5.3-17,23.3-17,11,1.4,14.3,3.3l12.5-4.3,1.1,1.1-2,7.5-6.6,1.2c1.3,1.7,2.3,4.8,2.3,7.8,0,11.9-10.5,16.2-22.3,16.2s-2.7,0-4.6-.2c-1.4.3-4,1.5-4,3.7s1.8,3.4,6.7,3.4h9.3ZM334.9,164.1c-1.4,1-2.5,2.7-2.5,5.5,0,7.1,6,11,12.7,11s12.4-2.9,12.4-10-5.3-8-13.8-8-7.4.6-8.8,1.5ZM342.9,139c4.6,0,7.5-4.5,7.5-11.6s-3.5-12-7.4-12-7.6,3.6-7.6,12.1,3.2,11.5,7.5,11.5Z"/>
  <path class="st1" d="M30.3,100.4c-5.8-5.7-14.2-8.5-27.2-8.6H.3v4.6c.2,0,.4,0,.7,0,13.4,0,20.3,10,20.3,29.3s-10.8,30.7-20.6,30.7-.2,0-.4,0v4.6c15.6-.2,38.7-3.2,38.7-35.3s-2.9-19.6-8.7-25.3Z"/>
  <path class="st1" d="M206.8,95.6v-3.8h-31.8v3.8c7.1.3,7.9.8,7.9,5.9v20.6h-17.4v4.8h17.4v24.4c0,5.1-.8,5.6-7.9,5.9v3.8h31.8v-3.8c-7.1-.3-7.9-.8-7.9-5.9v-49.8c0-5.1.8-5.6,7.9-5.9Z"/>
</svg>